<svg xmlns="http://www.w3.org/2000/svg" viewBox="0 0 128 128" enable-background="new 0 0 128 128"><path fill="#C2DAAA" d="M0 0v113.6l71-70.9 9.8 9.8L5.4 128H128V0z"/><path fill="#fff" d="M0 113.6V128h5.4l75.4-75.5-9.8-9.8z"/><circle fill="#70B130" cx="103.7" cy="67" r="3.2"/><circle fill="#639B34" cx="83.4" cy="12.6" r="1.9"/><circle fill="#fff" cx="16.6" cy="33.3" r="3.3"/><path fill="#70B130" d="M33 16.5l4.9-2-4.9-2-2-4.9-1.9 4.9-5 2 5 2 1.9 4.9z"/><path fill="#fff" d="M117.1 41.1l2.1-4.9-4.9 2.1-4.9-2.1 2.1 4.9-2.1 4.8 4.9-2.1 4.9 2.1zM53 23.8l1.6-3.5-3.6 1.5-3.5-1.5 1.5 3.5-1.5 3.6 3.5-1.6 3.6 1.6zM115.2 88.9l2.4-1-2.4-.9-.9-2.4-.9 2.4-2.4.9 2.4 1 .9 2.3z"/><circle fill="#639B34" cx="92.9" cy="109.5" r="6.4"/><path fill="#8CC258" d="M37.2 43.3C22.9 43.3 9.9 48.7 0 57.6v56.1L63.7 50c-7.9-4.3-16.9-6.7-26.5-6.7zM75.1 58.2L5.4 128h79.4c5.2-8.5 8.2-18.4 8.2-29-.1-16.1-6.9-30.6-17.9-40.8z"/><path fill="#7BAC48" d="M15 84.1c2.9.2 6 .3 8.7 1.1 1.2.4 2.4.7 3.6 1L45.5 68c-3.1-2.6-6.3-5-8.4-8.6-2.8-4.8-3.8-10.7-2.8-16.1-13.1.7-25.1 6-34.3 14.3v28c4.8-1.7 9.9-1.9 15-1.5zM84.9 70.3c-1.4 1.5-2.7 3.1-3.9 4.9-3.2 4.7-5.8 9.9-10 13.8-7.3 6.8-17.1 7.2-26.5 6.3-2-.2-4.1-.3-6.2-.2l-16.2 16.2c.1 3.8 1.1 7.7 3 10.9 1.2 2.1 2.7 4 4.4 5.8h55.2c5.2-8.5 8.2-18.4 8.2-29 0-10.5-2.9-20.3-8-28.7z"/><g fill="#fff"><path d="M92.9 25.4zM87.3 26l.7.7c.7.7 1.8.7 2.5 0l1.9-1.9-2.7-2.6-2.5 2.5c-.3.4-.3 1 .1 1.3zM89.7 22.3zM89.7 22.3z"/></g><path fill="#498E0B" d="M78.2 31.6L66.5 43.3l3.4 3.4 2.7 2.7 15.1-15.1-2.7-2.7c-1.9-1.9-4.9-1.9-6.8 0z"/><path fill="#234705" d="M109.8 14.5c-1.3 0-2.3 1-2.3 2.3v1.5l-5.5 2.8c-2.9 1.4-5.3 3.6-7.1 6.2l-2.4-2.4-1.9 1.9c-.7.7-1.8.7-2.5 0l-.8-.8c-.4-.4-.4-.9 0-1.3l2.5-2.5c-1.4-1.1-3.4-1-4.7.3L80.6 27l4.6 4.6c-3.2.7-6 2.9-7.4 5.9L73 47.3c-3.8 1.4-6.9 4.6-8.2 8.6L61 67.4l-.8.4c-4.1 2.1-7.5 5.4-9.6 9.6l-2.9 5.9-2.2-.5c-.9-.2-1.9.3-2.1 1.3l-2 8.1 3.8-3.8 4.1-4.1.4-.4 8.7-8.7L71 62.4l.5-.5c.7.5 1.4.9 2.2 1.2l10.5 4.7c-2.8.5-5.5 1.5-7.9 3l-5.5 3.5-1.5-1.5c-.6-.6-1.6-.6-2.2 0l-5.7 5.7 4.7-1.1 17.3-4.2 4.1-1c.8-.2 1.5-.6 2.1-1.2 1.6-1.6 1.8-4.5 0-6.3L79.1 54.4l3.2-2.4H94.8c.6 0 1.2-.3 1.5-.8.2-.3.3-.7.3-1.1v-1.8c0-.6-.5-1-1-1h-1.8c-1 0-1.9.8-1.9 1.9v.6l-3.5-1.2-1.2-.3 1.4-1c2.3-1.7 3.6-4.4 3.6-7.2v-4.6l8.7-8.7 6.5-6.5 4.1-4.1 1.8-1.8-3.5.1zM87.9 35v-.1.1z"/></svg>